<mxfile host="app.diagrams.net" modified="2024-01-29T04:59:58.466Z" agent="Mozilla/5.0 (Windows NT 10.0; Win64; x64) AppleWebKit/537.36 (KHTML, like Gecko) Chrome/120.0.0.0 Safari/537.36" etag="suJdjKeGujGSf-7vXyW-" version="23.0.2" type="github">
  <diagram name="Halaman-1" id="n4d2_k8Z-ag33ny472bB">
    <mxGraphModel dx="1760" dy="988" grid="0" gridSize="10" guides="1" tooltips="1" connect="1" arrows="1" fold="1" page="0" pageScale="1" pageWidth="1169" pageHeight="827" math="0" shadow="0">
      <root>
        <mxCell id="0" />
        <mxCell id="1" parent="0" />
        <mxCell id="EmTqExq6xAu9jE96Nq1d-1" value="ALUR PROSES PENGAJUAN PERMOHONAN BANK GARANSI" style="shape=table;startSize=40;container=1;collapsible=0;childLayout=tableLayout;fontSize=16;" parent="1" vertex="1">
          <mxGeometry x="40" y="40" width="1080" height="760" as="geometry" />
        </mxCell>
        <mxCell id="EmTqExq6xAu9jE96Nq1d-2" value="" style="shape=tableRow;horizontal=0;startSize=0;swimlaneHead=0;swimlaneBody=0;strokeColor=inherit;top=0;left=0;bottom=0;right=0;collapsible=0;dropTarget=0;fillColor=none;points=[[0,0.5],[1,0.5]];portConstraint=eastwest;fontSize=16;" parent="EmTqExq6xAu9jE96Nq1d-1" vertex="1">
          <mxGeometry y="40" width="1080" height="65" as="geometry" />
        </mxCell>
        <mxCell id="EmTqExq6xAu9jE96Nq1d-3" value="DEBITUR" style="shape=partialRectangle;html=1;whiteSpace=wrap;connectable=0;strokeColor=inherit;overflow=hidden;fillColor=none;top=0;left=0;bottom=0;right=0;pointerEvents=1;fontSize=16;rowspan=2;colspan=1;" parent="EmTqExq6xAu9jE96Nq1d-2" vertex="1">
          <mxGeometry width="216" height="117" as="geometry">
            <mxRectangle width="216" height="65" as="alternateBounds" />
          </mxGeometry>
        </mxCell>
        <mxCell id="EmTqExq6xAu9jE96Nq1d-4" value="BANK SUMUT" style="shape=partialRectangle;html=1;whiteSpace=wrap;connectable=0;strokeColor=inherit;overflow=hidden;fillColor=none;top=0;left=0;bottom=0;right=0;pointerEvents=1;fontSize=16;rowspan=1;colspan=4;" parent="EmTqExq6xAu9jE96Nq1d-2" vertex="1">
          <mxGeometry x="216" width="864" height="65" as="geometry">
            <mxRectangle width="216" height="65" as="alternateBounds" />
          </mxGeometry>
        </mxCell>
        <mxCell id="EmTqExq6xAu9jE96Nq1d-5" value="" style="shape=partialRectangle;html=1;whiteSpace=wrap;connectable=0;strokeColor=inherit;overflow=hidden;fillColor=none;top=0;left=0;bottom=0;right=0;pointerEvents=1;fontSize=16;" parent="EmTqExq6xAu9jE96Nq1d-2" vertex="1" visible="0">
          <mxGeometry x="432" width="216" height="65" as="geometry">
            <mxRectangle width="216" height="65" as="alternateBounds" />
          </mxGeometry>
        </mxCell>
        <mxCell id="EmTqExq6xAu9jE96Nq1d-6" value="" style="shape=partialRectangle;html=1;whiteSpace=wrap;connectable=0;strokeColor=inherit;overflow=hidden;fillColor=none;top=0;left=0;bottom=0;right=0;pointerEvents=1;fontSize=16;" parent="EmTqExq6xAu9jE96Nq1d-2" vertex="1" visible="0">
          <mxGeometry x="648" width="216" height="65" as="geometry">
            <mxRectangle width="216" height="65" as="alternateBounds" />
          </mxGeometry>
        </mxCell>
        <mxCell id="EmTqExq6xAu9jE96Nq1d-7" value="" style="shape=partialRectangle;html=1;whiteSpace=wrap;connectable=0;strokeColor=inherit;overflow=hidden;fillColor=none;top=0;left=0;bottom=0;right=0;pointerEvents=1;fontSize=16;" parent="EmTqExq6xAu9jE96Nq1d-2" vertex="1" visible="0">
          <mxGeometry x="864" width="216" height="65" as="geometry">
            <mxRectangle width="216" height="65" as="alternateBounds" />
          </mxGeometry>
        </mxCell>
        <mxCell id="EmTqExq6xAu9jE96Nq1d-8" value="" style="shape=tableRow;horizontal=0;startSize=0;swimlaneHead=0;swimlaneBody=0;strokeColor=inherit;top=0;left=0;bottom=0;right=0;collapsible=0;dropTarget=0;fillColor=none;points=[[0,0.5],[1,0.5]];portConstraint=eastwest;fontSize=16;" parent="EmTqExq6xAu9jE96Nq1d-1" vertex="1">
          <mxGeometry y="105" width="1080" height="52" as="geometry" />
        </mxCell>
        <mxCell id="EmTqExq6xAu9jE96Nq1d-9" value="" style="shape=partialRectangle;html=1;whiteSpace=wrap;connectable=0;strokeColor=inherit;overflow=hidden;fillColor=none;top=0;left=0;bottom=0;right=0;pointerEvents=1;fontSize=16;" parent="EmTqExq6xAu9jE96Nq1d-8" vertex="1" visible="0">
          <mxGeometry width="216" height="52" as="geometry">
            <mxRectangle width="216" height="52" as="alternateBounds" />
          </mxGeometry>
        </mxCell>
        <mxCell id="EmTqExq6xAu9jE96Nq1d-10" value="PIMPINAN UNIT" style="shape=partialRectangle;html=1;whiteSpace=wrap;connectable=0;strokeColor=inherit;overflow=hidden;fillColor=none;top=0;left=0;bottom=0;right=0;pointerEvents=1;fontSize=16;" parent="EmTqExq6xAu9jE96Nq1d-8" vertex="1">
          <mxGeometry x="216" width="216" height="52" as="geometry">
            <mxRectangle width="216" height="52" as="alternateBounds" />
          </mxGeometry>
        </mxCell>
        <mxCell id="EmTqExq6xAu9jE96Nq1d-11" value="PINSI KREDIT" style="shape=partialRectangle;html=1;whiteSpace=wrap;connectable=0;strokeColor=inherit;overflow=hidden;fillColor=none;top=0;left=0;bottom=0;right=0;pointerEvents=1;fontSize=16;" parent="EmTqExq6xAu9jE96Nq1d-8" vertex="1">
          <mxGeometry x="432" width="216" height="52" as="geometry">
            <mxRectangle width="216" height="52" as="alternateBounds" />
          </mxGeometry>
        </mxCell>
        <mxCell id="EmTqExq6xAu9jE96Nq1d-12" value="SRM/RM/ARM" style="shape=partialRectangle;html=1;whiteSpace=wrap;connectable=0;strokeColor=inherit;overflow=hidden;fillColor=none;top=0;left=0;bottom=0;right=0;pointerEvents=1;fontSize=16;" parent="EmTqExq6xAu9jE96Nq1d-8" vertex="1">
          <mxGeometry x="648" width="216" height="52" as="geometry">
            <mxRectangle width="216" height="52" as="alternateBounds" />
          </mxGeometry>
        </mxCell>
        <mxCell id="EmTqExq6xAu9jE96Nq1d-13" value="OPERASIONAL" style="shape=partialRectangle;html=1;whiteSpace=wrap;connectable=0;strokeColor=inherit;overflow=hidden;fillColor=none;top=0;left=0;bottom=0;right=0;pointerEvents=1;fontSize=16;" parent="EmTqExq6xAu9jE96Nq1d-8" vertex="1">
          <mxGeometry x="864" width="216" height="52" as="geometry">
            <mxRectangle width="216" height="52" as="alternateBounds" />
          </mxGeometry>
        </mxCell>
        <mxCell id="EmTqExq6xAu9jE96Nq1d-14" value="" style="shape=tableRow;horizontal=0;startSize=0;swimlaneHead=0;swimlaneBody=0;strokeColor=inherit;top=0;left=0;bottom=0;right=0;collapsible=0;dropTarget=0;fillColor=none;points=[[0,0.5],[1,0.5]];portConstraint=eastwest;fontSize=16;" parent="EmTqExq6xAu9jE96Nq1d-1" vertex="1">
          <mxGeometry y="157" width="1080" height="538" as="geometry" />
        </mxCell>
        <mxCell id="EmTqExq6xAu9jE96Nq1d-15" value="" style="shape=partialRectangle;html=1;whiteSpace=wrap;connectable=0;strokeColor=inherit;overflow=hidden;fillColor=none;top=0;left=0;bottom=0;right=0;pointerEvents=1;fontSize=16;" parent="EmTqExq6xAu9jE96Nq1d-14" vertex="1">
          <mxGeometry width="216" height="538" as="geometry">
            <mxRectangle width="216" height="538" as="alternateBounds" />
          </mxGeometry>
        </mxCell>
        <mxCell id="EmTqExq6xAu9jE96Nq1d-16" value="" style="shape=partialRectangle;html=1;whiteSpace=wrap;connectable=0;strokeColor=inherit;overflow=hidden;fillColor=none;top=0;left=0;bottom=0;right=0;pointerEvents=1;fontSize=16;" parent="EmTqExq6xAu9jE96Nq1d-14" vertex="1">
          <mxGeometry x="216" width="216" height="538" as="geometry">
            <mxRectangle width="216" height="538" as="alternateBounds" />
          </mxGeometry>
        </mxCell>
        <mxCell id="EmTqExq6xAu9jE96Nq1d-17" value="" style="shape=partialRectangle;html=1;whiteSpace=wrap;connectable=0;strokeColor=inherit;overflow=hidden;fillColor=none;top=0;left=0;bottom=0;right=0;pointerEvents=1;fontSize=16;" parent="EmTqExq6xAu9jE96Nq1d-14" vertex="1">
          <mxGeometry x="432" width="216" height="538" as="geometry">
            <mxRectangle width="216" height="538" as="alternateBounds" />
          </mxGeometry>
        </mxCell>
        <mxCell id="EmTqExq6xAu9jE96Nq1d-18" value="" style="shape=partialRectangle;html=1;whiteSpace=wrap;connectable=0;strokeColor=inherit;overflow=hidden;fillColor=none;top=0;left=0;bottom=0;right=0;pointerEvents=1;fontSize=16;" parent="EmTqExq6xAu9jE96Nq1d-14" vertex="1">
          <mxGeometry x="648" width="216" height="538" as="geometry">
            <mxRectangle width="216" height="538" as="alternateBounds" />
          </mxGeometry>
        </mxCell>
        <mxCell id="EmTqExq6xAu9jE96Nq1d-19" value="" style="shape=partialRectangle;html=1;whiteSpace=wrap;connectable=0;strokeColor=inherit;overflow=hidden;fillColor=none;top=0;left=0;bottom=0;right=0;pointerEvents=1;fontSize=16;" parent="EmTqExq6xAu9jE96Nq1d-14" vertex="1">
          <mxGeometry x="864" width="216" height="538" as="geometry">
            <mxRectangle width="216" height="538" as="alternateBounds" />
          </mxGeometry>
        </mxCell>
        <mxCell id="EmTqExq6xAu9jE96Nq1d-20" value="" style="shape=ext;double=1;rounded=1;whiteSpace=wrap;html=1;fontSize=16;" parent="EmTqExq6xAu9jE96Nq1d-14" vertex="1">
          <mxGeometry x="1080" width="NaN" height="538" as="geometry">
            <mxRectangle width="NaN" height="538" as="alternateBounds" />
          </mxGeometry>
        </mxCell>
        <mxCell id="EmTqExq6xAu9jE96Nq1d-21" value="" style="shape=singleArrow;whiteSpace=wrap;html=1;arrowWidth=0.4;arrowSize=0.4;fontSize=16;align=left;rounded=0;" parent="EmTqExq6xAu9jE96Nq1d-14" vertex="1">
          <mxGeometry width="NaN" height="538" as="geometry">
            <mxRectangle width="NaN" height="538" as="alternateBounds" />
          </mxGeometry>
        </mxCell>
        <mxCell id="EmTqExq6xAu9jE96Nq1d-22" value="" style="shape=tableRow;horizontal=0;startSize=0;swimlaneHead=0;swimlaneBody=0;strokeColor=inherit;top=0;left=0;bottom=0;right=0;collapsible=0;dropTarget=0;fillColor=none;points=[[0,0.5],[1,0.5]];portConstraint=eastwest;fontSize=16;" parent="EmTqExq6xAu9jE96Nq1d-1" vertex="1">
          <mxGeometry y="695" width="1080" height="65" as="geometry" />
        </mxCell>
        <mxCell id="EmTqExq6xAu9jE96Nq1d-23" value="" style="shape=partialRectangle;html=1;whiteSpace=wrap;connectable=0;strokeColor=inherit;overflow=hidden;fillColor=none;top=0;left=0;bottom=0;right=0;pointerEvents=1;fontSize=16;" parent="EmTqExq6xAu9jE96Nq1d-22" vertex="1">
          <mxGeometry width="216" height="65" as="geometry">
            <mxRectangle width="216" height="65" as="alternateBounds" />
          </mxGeometry>
        </mxCell>
        <mxCell id="EmTqExq6xAu9jE96Nq1d-24" value="" style="shape=partialRectangle;html=1;whiteSpace=wrap;connectable=0;strokeColor=inherit;overflow=hidden;fillColor=none;top=0;left=0;bottom=0;right=0;pointerEvents=1;fontSize=16;" parent="EmTqExq6xAu9jE96Nq1d-22" vertex="1">
          <mxGeometry x="216" width="216" height="65" as="geometry">
            <mxRectangle width="216" height="65" as="alternateBounds" />
          </mxGeometry>
        </mxCell>
        <mxCell id="EmTqExq6xAu9jE96Nq1d-25" value="" style="shape=partialRectangle;html=1;whiteSpace=wrap;connectable=0;strokeColor=inherit;overflow=hidden;fillColor=none;top=0;left=0;bottom=0;right=0;pointerEvents=1;fontSize=16;" parent="EmTqExq6xAu9jE96Nq1d-22" vertex="1">
          <mxGeometry x="432" width="216" height="65" as="geometry">
            <mxRectangle width="216" height="65" as="alternateBounds" />
          </mxGeometry>
        </mxCell>
        <mxCell id="EmTqExq6xAu9jE96Nq1d-26" value="" style="shape=partialRectangle;html=1;whiteSpace=wrap;connectable=0;strokeColor=inherit;overflow=hidden;fillColor=none;top=0;left=0;bottom=0;right=0;pointerEvents=1;fontSize=16;" parent="EmTqExq6xAu9jE96Nq1d-22" vertex="1">
          <mxGeometry x="648" width="216" height="65" as="geometry">
            <mxRectangle width="216" height="65" as="alternateBounds" />
          </mxGeometry>
        </mxCell>
        <mxCell id="EmTqExq6xAu9jE96Nq1d-27" value="" style="shape=partialRectangle;html=1;whiteSpace=wrap;connectable=0;strokeColor=inherit;overflow=hidden;fillColor=none;top=0;left=0;bottom=0;right=0;pointerEvents=1;fontSize=16;" parent="EmTqExq6xAu9jE96Nq1d-22" vertex="1">
          <mxGeometry x="864" width="216" height="65" as="geometry">
            <mxRectangle width="216" height="65" as="alternateBounds" />
          </mxGeometry>
        </mxCell>
        <mxCell id="EmTqExq6xAu9jE96Nq1d-29" value="START" style="shape=ext;double=1;rounded=1;whiteSpace=wrap;html=1;fontSize=16;" parent="1" vertex="1">
          <mxGeometry x="92" y="212" width="100" height="40" as="geometry" />
        </mxCell>
        <mxCell id="EmTqExq6xAu9jE96Nq1d-31" value="1. Akses Aplikasi Mobile Smart Loan&lt;br&gt;2. Registrasi User&lt;br&gt;3. Mengajukan&amp;nbsp; &amp;nbsp; &amp;nbsp; &amp;nbsp; Permohonan Bank &lt;br&gt;Garnasi" style="rounded=0;whiteSpace=wrap;html=1;fontSize=16;align=left;" parent="1" vertex="1">
          <mxGeometry x="50" y="316" width="190" height="124" as="geometry" />
        </mxCell>
        <mxCell id="EmTqExq6xAu9jE96Nq1d-32" value="4. Akses&amp;nbsp; Aplikasi Web Smart Loan&lt;br&gt;5. Memilih Pinsi Kredit &amp;amp; Petugas Analisa" style="rounded=0;whiteSpace=wrap;html=1;fontSize=16;align=left;" parent="1" vertex="1">
          <mxGeometry x="280" y="213" width="180" height="110" as="geometry" />
        </mxCell>
        <mxCell id="EmTqExq6xAu9jE96Nq1d-33" value="7. Review Hasil Analisa dan Mengirim Ke Pimpinan" style="rounded=0;whiteSpace=wrap;html=1;fontSize=16;align=left;" parent="1" vertex="1">
          <mxGeometry x="485" y="350" width="190" height="70" as="geometry" />
        </mxCell>
        <mxCell id="EmTqExq6xAu9jE96Nq1d-34" value="8. Review Hasil Analisa dan Mengirim Ke Processing/Operasional" style="rounded=0;whiteSpace=wrap;html=1;fontSize=16;align=left;" parent="1" vertex="1">
          <mxGeometry x="280" y="470" width="170" height="70" as="geometry" />
        </mxCell>
        <mxCell id="EmTqExq6xAu9jE96Nq1d-35" value="6. Melakukan Analisa" style="rounded=0;whiteSpace=wrap;html=1;fontSize=16;align=left;" parent="1" vertex="1">
          <mxGeometry x="709" y="249" width="180" height="50" as="geometry" />
        </mxCell>
        <mxCell id="EmTqExq6xAu9jE96Nq1d-36" value="9. Mengkonfirmasi Permohonan Sudah Sesuai dan Permohonan Selesai" style="rounded=0;whiteSpace=wrap;html=1;fontSize=16;align=left;" parent="1" vertex="1">
          <mxGeometry x="910" y="455" width="200" height="100" as="geometry" />
        </mxCell>
        <mxCell id="EmTqExq6xAu9jE96Nq1d-37" value="" style="edgeStyle=elbowEdgeStyle;elbow=horizontal;endArrow=classic;html=1;curved=0;rounded=0;endSize=8;startSize=8;fontSize=12;entryX=0;entryY=0.5;entryDx=0;entryDy=0;" parent="1" target="EmTqExq6xAu9jE96Nq1d-32" edge="1">
          <mxGeometry width="50" height="50" relative="1" as="geometry">
            <mxPoint x="240" y="367.96" as="sourcePoint" />
            <mxPoint x="281.08000000000004" y="276.05" as="targetPoint" />
            <Array as="points">
              <mxPoint x="265" y="337.96" />
            </Array>
          </mxGeometry>
        </mxCell>
        <mxCell id="EmTqExq6xAu9jE96Nq1d-38" value="" style="endArrow=classic;html=1;rounded=0;fontSize=12;startSize=8;endSize=8;curved=1;" parent="1" edge="1">
          <mxGeometry width="50" height="50" relative="1" as="geometry">
            <mxPoint x="142" y="254" as="sourcePoint" />
            <mxPoint x="143" y="311" as="targetPoint" />
          </mxGeometry>
        </mxCell>
        <mxCell id="EmTqExq6xAu9jE96Nq1d-39" value="" style="edgeStyle=segmentEdgeStyle;endArrow=classic;html=1;curved=0;rounded=0;endSize=8;startSize=8;fontSize=12;exitX=1;exitY=0.5;exitDx=0;exitDy=0;entryX=-0.006;entryY=0.374;entryDx=0;entryDy=0;entryPerimeter=0;" parent="1" source="EmTqExq6xAu9jE96Nq1d-32" target="EmTqExq6xAu9jE96Nq1d-35" edge="1">
          <mxGeometry width="50" height="50" relative="1" as="geometry">
            <mxPoint x="460" y="420" as="sourcePoint" />
            <mxPoint x="510" y="370" as="targetPoint" />
          </mxGeometry>
        </mxCell>
        <mxCell id="EmTqExq6xAu9jE96Nq1d-40" value="" style="edgeStyle=elbowEdgeStyle;elbow=vertical;endArrow=none;html=1;curved=0;rounded=0;endSize=8;startSize=8;fontSize=12;endFill=0;startArrow=classic;startFill=1;exitX=0.5;exitY=0;exitDx=0;exitDy=0;entryX=0.5;entryY=1;entryDx=0;entryDy=0;" parent="1" source="EmTqExq6xAu9jE96Nq1d-33" target="EmTqExq6xAu9jE96Nq1d-35" edge="1">
          <mxGeometry width="50" height="50" relative="1" as="geometry">
            <mxPoint x="580" y="350" as="sourcePoint" />
            <mxPoint x="630" y="300" as="targetPoint" />
          </mxGeometry>
        </mxCell>
        <mxCell id="EmTqExq6xAu9jE96Nq1d-41" value="" style="edgeStyle=elbowEdgeStyle;elbow=vertical;endArrow=none;html=1;curved=0;rounded=0;endSize=8;startSize=8;fontSize=12;exitX=0.5;exitY=0;exitDx=0;exitDy=0;entryX=0.5;entryY=1;entryDx=0;entryDy=0;endFill=0;startArrow=classic;startFill=1;" parent="1" source="EmTqExq6xAu9jE96Nq1d-34" target="EmTqExq6xAu9jE96Nq1d-33" edge="1">
          <mxGeometry width="50" height="50" relative="1" as="geometry">
            <mxPoint x="410" y="460" as="sourcePoint" />
            <mxPoint x="460" y="410" as="targetPoint" />
          </mxGeometry>
        </mxCell>
        <mxCell id="EmTqExq6xAu9jE96Nq1d-42" value="" style="endArrow=classic;html=1;rounded=0;fontSize=12;startSize=8;endSize=8;curved=1;exitX=1;exitY=0.5;exitDx=0;exitDy=0;" parent="1" source="EmTqExq6xAu9jE96Nq1d-34" target="EmTqExq6xAu9jE96Nq1d-36" edge="1">
          <mxGeometry width="50" height="50" relative="1" as="geometry">
            <mxPoint x="560" y="460" as="sourcePoint" />
            <mxPoint x="610" y="410" as="targetPoint" />
          </mxGeometry>
        </mxCell>
        <mxCell id="EmTqExq6xAu9jE96Nq1d-43" value="10. Menerima Notivikasi&amp;nbsp;" style="rounded=0;whiteSpace=wrap;html=1;fontSize=16;align=left;" parent="1" vertex="1">
          <mxGeometry x="50" y="551" width="190" height="49" as="geometry" />
        </mxCell>
        <mxCell id="EmTqExq6xAu9jE96Nq1d-44" value="Selesai" style="ellipse;whiteSpace=wrap;html=1;aspect=fixed;fontSize=16;" parent="1" vertex="1">
          <mxGeometry x="111" y="653" width="67" height="67" as="geometry" />
        </mxCell>
        <mxCell id="EmTqExq6xAu9jE96Nq1d-45" value="" style="endArrow=classic;html=1;rounded=0;fontSize=12;startSize=8;endSize=8;curved=1;entryX=0.5;entryY=0;entryDx=0;entryDy=0;" parent="1" source="EmTqExq6xAu9jE96Nq1d-43" target="EmTqExq6xAu9jE96Nq1d-44" edge="1">
          <mxGeometry width="50" height="50" relative="1" as="geometry">
            <mxPoint x="560" y="600" as="sourcePoint" />
            <mxPoint x="610" y="550" as="targetPoint" />
          </mxGeometry>
        </mxCell>
        <mxCell id="EmTqExq6xAu9jE96Nq1d-46" value="" style="edgeStyle=segmentEdgeStyle;endArrow=none;html=1;curved=0;rounded=0;endSize=8;startSize=8;fontSize=12;entryX=0.5;entryY=1;entryDx=0;entryDy=0;exitX=1;exitY=0.5;exitDx=0;exitDy=0;startArrow=classic;startFill=1;endFill=0;" parent="1" source="EmTqExq6xAu9jE96Nq1d-43" target="EmTqExq6xAu9jE96Nq1d-36" edge="1">
          <mxGeometry width="50" height="50" relative="1" as="geometry">
            <mxPoint x="560" y="600" as="sourcePoint" />
            <mxPoint x="610" y="550" as="targetPoint" />
          </mxGeometry>
        </mxCell>
      </root>
    </mxGraphModel>
  </diagram>
</mxfile>
